<?xml version="1.0" encoding="UTF-8"?> <svg xmlns="http://www.w3.org/2000/svg" width="173" height="48" viewBox="0 0 173 48" fill="none"><g id="Logo" clip-path="url(#clip0_417_2286)"><path id="Vector" d="M46.7961 41.059L32.7801 20.5625C32.6932 20.4342 32.646 20.2833 32.646 20.1279H16.1962C16.1962 20.2833 16.149 20.4342 16.0621 20.5625L2.04609 41.059C1.30062 42.1491 1.22125 43.4989 1.83372 44.6697C2.44618 45.8406 3.59819 46.5392 4.9143 46.5392H43.9269C45.243 46.5392 46.395 45.8406 47.0075 44.6697C47.6199 43.4989 47.5405 42.1491 46.7951 41.059H46.7961ZM36.9408 36.9707C36.1825 39.0009 34.2207 40.3647 32.0593 40.3647C31.5444 40.3647 31.0328 40.2871 30.5383 40.1351L30.5051 40.1253L30.4825 40.1512C30.0009 40.7 29.3069 41.0138 28.5765 41.0138C28.2762 41.0138 27.9822 40.9599 27.7023 40.8542C27.5757 40.8068 27.4513 40.7475 27.3333 40.6795L27.299 40.6602L27.2701 40.6871C26.3079 41.5733 25.0593 42.0617 23.7529 42.0617C23.1265 42.0617 22.5107 41.9485 21.9219 41.7264L21.3652 41.5151L21.347 41.5075L21.3287 41.514C21.2526 41.541 21.1743 41.556 21.096 41.556L21.0777 41.5539L21.0627 41.5679C21.0627 41.5679 21.0552 41.5733 21.0499 41.5787L19.3787 43.2865C18.8499 43.8277 18.112 44.1372 17.3568 44.1372C17.3235 44.1372 17.2903 44.1372 17.257 44.135C16.4654 44.1069 15.7146 43.7415 15.1976 43.1323C14.4725 42.2784 14.333 41.0526 14.8426 40.0089L14.8672 39.9582L14.8147 39.9356C14.5937 39.8418 14.3791 39.7318 14.1754 39.609C12.0001 38.2947 11.0733 35.6198 11.9722 33.249C12.2415 32.5385 12.6716 31.883 13.2154 31.3525L13.2336 31.3353L13.2315 31.3094C13.1681 30.5428 13.2765 29.7558 13.5457 29.0356C14.3041 27.0054 16.2606 25.6405 18.4122 25.6405C18.5388 25.6405 18.6665 25.6449 18.792 25.6545L18.821 25.6567L18.8381 25.6329C19.4741 24.777 20.4921 24.2659 21.5593 24.2659C21.9659 24.2659 22.3649 24.3392 22.7468 24.4826C22.9699 24.5667 23.1865 24.6767 23.3882 24.8071L23.4118 24.8222L23.4375 24.8115C24.4211 24.3877 25.4637 24.1731 26.5385 24.1731C27.4856 24.1731 28.4124 24.3414 29.293 24.6745C30.9406 25.2966 32.3478 26.475 33.2553 27.9909L33.266 28.0081L33.2853 28.0146C33.3293 28.0286 33.3722 28.0437 33.414 28.0599C34.7613 28.5687 35.6248 29.8291 35.6129 31.2717V31.2954L35.6301 31.3116C37.1693 32.7606 37.6841 34.9815 36.9419 36.9686L36.9408 36.9707Z" fill="#80DBFF"></path><path id="Vector_2" d="M32.6657 20.1444V10.2017C32.6657 10.1867 32.6539 10.1748 32.6389 10.1748H16.2416C16.2267 10.1748 16.2148 10.1867 16.2148 10.2017V20.1444C16.2148 20.1444 16.2148 20.1487 16.2148 20.1509C16.2148 20.1541 16.2148 20.1573 16.2148 20.1617C16.2148 20.1692 16.217 20.1756 16.2224 20.181C16.2277 20.1864 16.2341 20.1896 16.2416 20.1896H32.641C32.6486 20.1896 32.655 20.1864 32.6604 20.181C32.6657 20.1756 32.6679 20.1692 32.6679 20.1617C32.6679 20.1584 32.6679 20.1551 32.6679 20.1509C32.6679 20.1487 32.6679 20.1465 32.6679 20.1444H32.6657Z" fill="white"></path><path id="Vector_3" d="M34.6596 1.49805H14.2207C12.9636 1.49805 11.9414 2.52552 11.9414 3.7891V6.40899C11.9414 7.67259 12.9636 8.70002 14.2207 8.70002H34.6596C35.9168 8.70002 36.939 7.67259 36.939 6.40899V3.7891C36.939 2.52552 35.9168 1.49805 34.6596 1.49805Z" fill="white"></path><path id="Vector_4" d="M35.8432 34.84C35.8411 34.812 35.8174 34.7904 35.7896 34.7904H28.1847C27.7953 34.7904 27.4788 34.4723 27.4788 34.081V31.7824C27.4788 31.7619 27.4682 31.7436 27.4499 31.735C26.9146 31.4568 26.581 30.908 26.581 30.3031C26.581 29.4148 27.3008 28.6913 28.1847 28.6913C29.0685 28.6913 29.7882 29.4148 29.7882 30.3031C29.7882 30.908 29.4557 31.4557 28.9194 31.735C28.9012 31.7446 28.8904 31.763 28.8904 31.7824V33.3177C28.8904 33.3478 28.9141 33.3715 28.9441 33.3715H35.3176C35.3369 33.3715 35.3541 33.3619 35.3637 33.3446C35.3734 33.3284 35.3734 33.3079 35.3637 33.2907C35.1245 32.867 34.8135 32.4994 34.4381 32.1964C34.2471 32.0422 34.1484 31.7953 34.1796 31.5506C34.2986 30.6298 33.7784 29.7577 32.9139 29.431C32.8366 29.4019 32.7508 29.377 32.6436 29.3533C32.4441 29.3091 32.2735 29.1797 32.1759 28.9997C31.4368 27.6391 30.2355 26.59 28.7928 26.0456C28.072 25.7739 27.3137 25.6359 26.5392 25.6359C25.6822 25.6359 24.8466 25.803 24.0572 26.1329C24.0368 26.1415 24.0239 26.161 24.0239 26.1825V31.3576C24.0239 31.749 23.7075 32.067 23.3181 32.067H21.0302C21.0098 32.067 20.9916 32.0778 20.9831 32.0961C20.7063 32.6341 20.1603 32.9694 19.5586 32.9694C18.6747 32.9694 17.955 32.246 17.955 31.3576C17.955 30.4692 18.6747 29.7457 19.5586 29.7457C20.1603 29.7457 20.7052 30.08 20.9831 30.619C20.9927 30.6374 21.0109 30.6481 21.0302 30.6481H22.5577C22.5877 30.6481 22.6113 30.6244 22.6113 30.5943V26.0693C22.6113 26.0509 22.6016 26.0337 22.5856 26.024C22.4751 25.955 22.3613 25.8979 22.2466 25.8547C22.0235 25.7707 21.7907 25.7286 21.5537 25.7286C20.8146 25.7286 20.1432 26.1351 19.7999 26.7906C19.6777 27.0245 19.4385 27.1701 19.1767 27.1701C19.1359 27.1701 19.0952 27.1669 19.0555 27.1593C18.8442 27.1226 18.6276 27.1043 18.413 27.1043C16.8426 27.1043 15.4161 28.0984 14.8626 29.5786C14.6288 30.205 14.5623 30.8843 14.6717 31.5441C14.7135 31.7942 14.618 32.0487 14.4228 32.2093C13.9133 32.6287 13.5207 33.1786 13.2858 33.7975C13.1421 34.1758 13.0627 34.578 13.0488 34.9909C13.0488 35.006 13.0542 35.02 13.0638 35.0297C13.0735 35.0405 13.0874 35.0459 13.1025 35.0459H15.9395C15.9599 35.0459 15.9782 35.0351 15.9867 35.0168C16.2635 34.4788 16.8094 34.1435 17.4111 34.1435C18.295 34.1435 19.0148 34.867 19.0148 35.7553C19.0148 36.6437 18.295 37.3672 17.4111 37.3672C16.8094 37.3672 16.2645 37.033 15.9867 36.4939C15.977 36.4756 15.9588 36.4648 15.9395 36.4648H13.3652C13.347 36.4648 13.3309 36.4734 13.3213 36.4885C13.3116 36.5035 13.3095 36.5219 13.3158 36.538C13.6248 37.3316 14.1869 38.0044 14.8969 38.4334C15.2305 38.635 15.5952 38.7828 15.9813 38.8711C16.2742 38.938 16.5091 39.1612 16.5938 39.4512C16.6786 39.7423 16.6003 40.0582 16.3889 40.2749C15.8473 40.828 15.7937 41.697 16.2667 42.2522C16.5316 42.5638 16.8985 42.7428 17.3018 42.7579C17.3179 42.7579 17.335 42.7579 17.3511 42.7579C17.7362 42.7579 18.0966 42.6058 18.3668 42.331L20.0391 40.6243C20.1324 40.5294 20.2386 40.4442 20.3545 40.372C20.3706 40.3622 20.3802 40.345 20.3802 40.3267V36.4777C20.3802 36.0863 20.6966 35.7683 21.086 35.7683H23.3986C23.419 35.7683 23.4372 35.7575 23.4458 35.7391C23.7225 35.2012 24.2685 34.8658 24.8702 34.8658C25.7541 34.8658 26.4738 35.5893 26.4738 36.4777C26.4738 37.3661 25.7541 38.0895 24.8702 38.0895C24.2685 38.0895 23.7236 37.7553 23.4458 37.2162C23.4361 37.1979 23.4179 37.1871 23.3986 37.1871H21.8454C21.8154 37.1871 21.7918 37.2109 21.7918 37.241V40.1638C21.7918 40.1865 21.8057 40.207 21.8271 40.2145L21.8411 40.2188C21.8411 40.2188 21.8487 40.221 21.853 40.2232L22.4172 40.4377C22.8451 40.5994 23.2946 40.6813 23.7504 40.6813C24.8917 40.6813 25.9611 40.1725 26.6851 39.2852C26.8159 39.1246 27.0102 39.0297 27.2172 39.0253H27.2311C27.4327 39.0253 27.6248 39.1116 27.7588 39.2636C27.8789 39.3994 28.0269 39.5019 28.1965 39.5655C28.3198 39.6118 28.4485 39.6355 28.5805 39.6355C29.0106 39.6355 29.4053 39.3854 29.5866 38.9984C29.7024 38.7515 29.9534 38.5909 30.2259 38.5909C30.3256 38.5909 30.4222 38.6113 30.5133 38.6523C30.5949 38.689 30.6635 38.717 30.7279 38.7418C31.1569 38.9035 31.6042 38.9854 32.059 38.9854C33.6336 38.9854 35.0634 37.9914 35.6169 36.5122C35.8174 35.9764 35.8936 35.4136 35.8443 34.84H35.8432Z" fill="#FF5C8D"></path><path id="Vector_5" d="M48.0011 40.1446L34.1642 19.909V10.2035H34.6652C36.745 10.2035 38.4375 8.50222 38.4375 6.41171V3.79183C38.4375 1.70131 36.745 0 34.6652 0H14.2262C12.1463 0 10.4538 1.70131 10.4538 3.79183V6.41171C10.4538 8.50222 12.1463 10.2035 14.2262 10.2035H14.7271V19.909L0.890213 40.1446C-0.178125 41.7069 -0.291824 43.6421 0.586659 45.3197C1.46514 46.9984 3.11591 48 5.00267 48H43.8887C45.7754 48 47.4262 46.9984 48.3046 45.3197C49.1832 43.6411 49.0694 41.7069 48.0011 40.1446ZM11.9737 6.41171V3.79183C11.9737 2.54334 12.9841 1.52773 14.2262 1.52773H34.6652C35.9072 1.52773 36.9176 2.54334 36.9176 3.79183V6.41171C36.9176 7.6602 35.9072 8.67585 34.6652 8.67585H14.2262C12.9841 8.67585 11.9737 7.6602 11.9737 6.41171ZM46.9596 44.6092C46.3482 45.7758 45.2005 46.4734 43.8887 46.4734H5.00267C3.69084 46.4734 2.54313 45.7769 1.93173 44.6092C1.32034 43.4427 1.39971 42.0972 2.14304 41.0104L16.1141 20.5796C16.2009 20.4524 16.2481 20.3015 16.2481 20.1473V10.2046H32.6453V20.1473C32.6453 20.3015 32.6915 20.4524 32.7795 20.5796L46.7504 41.0104C47.4938 42.0972 47.5721 43.4427 46.9618 44.6092H46.9596Z" fill="black"></path><path id="Vector_6" d="M35.6568 31.2919C35.6686 29.8515 34.7945 28.547 33.4236 28.0295C33.3807 28.0133 33.3378 27.9982 33.2927 27.9831C32.3767 26.4532 30.9716 25.2737 29.3037 24.6441C27.3965 23.9239 25.2738 23.9789 23.4085 24.7821C23.2036 24.6484 22.9859 24.5384 22.7574 24.4522C21.3062 23.9056 19.6897 24.4069 18.7877 25.6209C16.4868 25.4505 14.3116 26.8273 13.4867 29.0364C13.2121 29.7695 13.1048 30.5566 13.1692 31.334C12.6179 31.8709 12.1877 32.5253 11.9132 33.2498C11.0046 35.6454 11.9411 38.3483 14.1389 39.6755C14.3459 39.8006 14.5626 39.9106 14.7846 40.0055C14.2815 41.0362 14.392 42.2997 15.1471 43.1882C15.6738 43.808 16.4386 44.18 17.2452 44.2091C17.2795 44.2102 17.3128 44.2113 17.3471 44.2113C18.1183 44.2113 18.8648 43.8986 19.4076 43.3444L21.0788 41.6367C21.0788 41.6367 21.0852 41.6324 21.0874 41.6302C21.1753 41.6302 21.2601 41.6129 21.3384 41.585L21.8951 41.7962C23.7689 42.5035 25.8541 42.0766 27.2989 40.7462C27.4191 40.8162 27.5456 40.8755 27.6754 40.9251C28.6923 41.309 29.825 40.9931 30.5147 40.2071C33.1491 41.021 36.0012 39.6378 36.9837 37.0104C37.7377 34.9931 37.2025 32.7474 35.659 31.2941L35.6568 31.2919ZM35.5593 36.4702C34.833 38.4119 32.6717 39.3974 30.7399 38.6686C30.668 38.6416 30.5983 38.6114 30.5286 38.5802C30.1521 38.4109 29.708 38.5758 29.531 38.9521C29.2983 39.4481 28.717 39.6842 28.2074 39.4922C28.0466 39.4308 27.906 39.3349 27.7913 39.2044C27.6432 39.0373 27.4277 38.9435 27.2077 38.9489C26.9858 38.9532 26.7766 39.0556 26.6349 39.2281C25.6182 40.4744 23.9266 40.9316 22.4271 40.3645L21.8629 40.1499C21.8543 40.1467 21.8457 40.1445 21.8371 40.1413V37.2185H23.3903C23.666 37.7543 24.2205 38.1209 24.8619 38.1209C25.7769 38.1209 26.5191 37.3748 26.5191 36.4551C26.5191 35.5355 25.7769 34.7894 24.8619 34.7894C24.2205 34.7894 23.666 35.156 23.3903 35.6918H21.0777C20.6583 35.6918 20.3183 36.0336 20.3183 36.4551V40.3041C20.2014 40.3763 20.0919 40.4636 19.9933 40.5639L18.321 42.2717C18.0486 42.5498 17.685 42.6943 17.2967 42.6814C16.9084 42.6674 16.5555 42.4949 16.3002 42.1952C15.8454 41.6604 15.898 40.8238 16.4204 40.2901C16.6456 40.0594 16.7293 39.7241 16.6392 39.4136C16.5491 39.1041 16.2991 38.868 15.987 38.7958C15.6073 38.7084 15.2479 38.5629 14.9186 38.3645C14.1914 37.9257 13.6562 37.2562 13.3591 36.495H15.9334C16.2091 37.0309 16.7636 37.3974 17.405 37.3974C18.32 37.3974 19.0622 36.6514 19.0622 35.7317C19.0622 34.812 18.32 34.066 17.405 34.066C16.7636 34.066 16.2091 34.4325 15.9334 34.9684H13.0963C13.1091 34.5716 13.1853 34.1749 13.3301 33.7932C13.5618 33.1829 13.949 32.6417 14.451 32.2277C14.6612 32.0542 14.7632 31.7814 14.7181 31.5119C14.6108 30.8618 14.6752 30.1922 14.9058 29.5744C15.4604 28.0898 16.873 27.1357 18.4058 27.1357C18.615 27.1357 18.8273 27.1529 19.0397 27.1907C19.3658 27.2478 19.6876 27.086 19.8409 26.7939C20.2915 25.9325 21.3137 25.5422 22.2211 25.8839C22.3359 25.9271 22.4464 25.9832 22.5504 26.0489V30.5738H21.023C20.7473 30.038 20.1928 29.6714 19.5514 29.6714C18.6364 29.6714 17.8942 30.4175 17.8942 31.3372C17.8942 32.2568 18.6364 33.0029 19.5514 33.0029C20.1928 33.0029 20.7473 32.6363 21.023 32.1005H23.3109C23.7303 32.1005 24.0703 31.7588 24.0703 31.3372V26.1621C25.5624 25.5389 27.2485 25.5023 28.7674 26.0759C30.1982 26.616 31.3888 27.6564 32.1225 29.0063C32.2277 29.2003 32.411 29.3383 32.6256 29.3858C32.7297 29.4084 32.8133 29.4332 32.8884 29.4612C33.7293 29.7793 34.2356 30.6267 34.1198 31.5227C34.0855 31.7867 34.1905 32.0498 34.3976 32.2169C34.7763 32.522 35.0808 32.8897 35.3104 33.2951H28.9368V31.7598C29.47 31.4828 29.8346 30.9254 29.8346 30.2806C29.8346 29.3609 29.0924 28.6149 28.1774 28.6149C27.2625 28.6149 26.5202 29.3609 26.5202 30.2806C26.5202 30.9254 26.8849 31.4828 27.418 31.7598V34.0584C27.418 34.48 27.758 34.8218 28.1774 34.8218H35.7824C35.8295 35.3684 35.7598 35.9312 35.5581 36.4713L35.5593 36.4702Z" fill="black"></path><g id="Group 36"><path id="Vector_7" d="M68.0046 32.9987C67.1395 32.9987 66.4068 32.8721 65.8007 32.617C65.3615 32.4321 64.9779 32.2004 64.648 31.918C64.4716 31.7681 64.2049 31.8363 64.1263 32.0544L63.9614 32.5158C63.9134 32.6482 63.7906 32.7358 63.6525 32.7358H61.255C61.0459 32.7358 60.8905 32.5411 60.9327 32.3328L64.5003 15.2648C64.5329 15.111 64.6672 15 64.8225 15H67.6497C67.8588 15 68.0141 15.1947 67.9719 15.403L66.9515 20.2804C66.896 20.5472 67.1587 20.7613 67.4042 20.6524C68.3882 20.2162 69.4604 20.0001 70.6227 20.0001C71.693 20.0001 72.6098 20.2279 73.3693 20.6835C74.1289 21.1391 74.6698 21.8362 74.9901 22.7746C75.3104 23.7131 75.3217 24.9184 75.0285 26.3923C74.5777 28.6372 73.7664 30.3001 72.5926 31.3787C71.4168 32.4574 69.8881 32.9968 68.0046 32.9968V32.9987ZM67.5634 30.3935C68.6855 30.3935 69.5505 30.0606 70.1547 29.3947C70.7589 28.7288 71.2001 27.728 71.4763 26.3942C71.7697 25.0079 71.7525 24.0305 71.4244 23.46C71.0965 22.8895 70.3446 22.6052 69.1688 22.6052C68.0775 22.6052 67.1453 22.8856 66.3704 23.4483C66.3033 23.497 66.2572 23.5729 66.24 23.6547L65.1064 29.1104C65.0872 29.2078 65.1064 29.311 65.1678 29.3869C65.4152 29.6945 65.7298 29.934 66.1114 30.1054C66.543 30.2981 67.0264 30.3955 67.5634 30.3955V30.3935Z" fill="black"></path><path id="Vector_8" d="M76.2511 32.3328L78.7046 20.5276C78.737 20.3739 78.8716 20.2629 79.0266 20.2629H81.6426C81.8344 20.2629 81.9864 20.4303 81.9713 20.6231L81.9443 20.9599C81.9232 21.2169 82.1819 21.398 82.4099 21.2889C82.9304 21.0397 83.5148 20.808 84.1654 20.5919C84.8732 20.3583 85.56 20.183 86.2271 20.0701C86.4513 20.0311 86.6431 20.2414 86.5972 20.4673L86.1948 22.4572C86.1677 22.5935 86.0601 22.6967 85.9263 22.7181C85.502 22.7862 85.0455 22.8797 84.5543 23.0004C83.9751 23.1406 83.4133 23.2983 82.8702 23.4735C82.3933 23.6274 81.9789 23.787 81.6276 23.9545C81.5358 23.9993 81.4704 24.0849 81.4493 24.1862L79.7231 32.469C79.6907 32.6229 79.5561 32.7339 79.4012 32.7339H76.5737C76.3646 32.7339 76.2089 32.5391 76.2511 32.3308V32.3328Z" fill="black"></path><path id="Vector_9" d="M90.3992 32.9976C89.3439 32.9976 88.433 32.8049 87.6635 32.4194C86.8948 32.0338 86.3502 31.4069 86.0313 30.5385C85.7116 29.6701 85.6981 28.5252 85.9929 27.1038C86.3043 25.6124 86.8218 24.341 87.5484 23.2896C88.2735 22.2362 89.1468 21.4262 90.1667 20.8558C91.1852 20.2852 92.2751 20.001 93.4334 20.001C94.1239 20.001 94.7204 20.0808 95.2206 20.2385C95.5643 20.3476 95.8923 20.5131 96.2052 20.737C96.4023 20.8791 96.6783 20.7759 96.7249 20.5345C96.755 20.3767 96.8897 20.2639 97.0469 20.2639H99.8705C100.08 20.2639 100.235 20.4586 100.192 20.6669L97.7396 32.472C97.7065 32.6258 97.5726 32.7367 97.4169 32.7367H95.0137C94.8295 32.7367 94.6798 32.5829 94.6858 32.396L94.6896 32.2227C94.6956 31.9579 94.4097 31.7943 94.1871 31.9345C93.7095 32.2344 93.2221 32.472 92.7219 32.6452C92.0389 32.8827 91.2657 32.9996 90.4029 32.9996L90.3992 32.9976ZM91.9005 30.3924C92.952 30.3924 93.9208 30.042 94.8107 29.3391C94.8738 29.2904 94.916 29.2164 94.9333 29.1385L96.0171 23.8639C96.0359 23.7666 96.0149 23.6614 95.9517 23.5836C95.4244 22.9313 94.7031 22.6042 93.7937 22.6042C91.5996 22.6042 90.1825 24.1035 89.5432 27.1038C89.2671 28.3851 89.313 29.2534 89.6853 29.709C90.0577 30.1647 90.7963 30.3924 91.9005 30.3924Z" fill="black"></path><path id="Vector_10" d="M101.886 32.3324L103.766 23.296C103.809 23.0878 103.652 22.893 103.443 22.893H102.463C102.239 22.893 102.082 22.6711 102.151 22.4549L102.789 20.4904C102.833 20.354 102.96 20.2606 103.102 20.2606H107.487C107.696 20.2606 107.851 20.4553 107.809 20.6636L105.356 32.4687C105.323 32.6225 105.189 32.7335 105.033 32.7335H102.206C101.997 32.7335 101.842 32.5388 101.884 32.3305L101.886 32.3324ZM104.684 17.5717L105.117 15.4494C105.151 15.2936 105.284 15.1826 105.44 15.1826H108.578C108.787 15.1826 108.942 15.3773 108.9 15.5837L108.467 17.7061C108.434 17.8618 108.3 17.9728 108.144 17.9728H105.006C104.798 17.9728 104.642 17.7781 104.684 17.5717Z" fill="black"></path><path id="Vector_11" d="M108.392 32.3327L110.845 20.5276C110.878 20.3738 111.012 20.2628 111.168 20.2628H113.782C113.975 20.2628 114.127 20.4303 114.11 20.6269L114.094 20.8022C114.072 21.0689 114.348 21.25 114.579 21.1234C115.043 20.8703 115.569 20.6386 116.151 20.4342C116.971 20.1441 117.805 20 118.652 20C121.763 20 122.988 21.579 122.332 24.7371L120.729 32.4709C120.696 32.6248 120.562 32.7358 120.406 32.7358H117.58C117.371 32.7358 117.215 32.5411 117.257 32.3327L118.805 24.9202C118.977 24.0791 118.943 23.4814 118.701 23.1309C118.46 22.7804 117.908 22.6051 117.043 22.6051C116.403 22.6051 115.79 22.7278 115.203 22.9732C114.656 23.2009 114.171 23.4833 113.744 23.8182C113.68 23.8668 113.638 23.9389 113.623 24.0168L111.862 32.4709C111.829 32.6248 111.695 32.7358 111.54 32.7358H108.712C108.503 32.7358 108.348 32.5411 108.39 32.3327H108.392Z" fill="black"></path><path id="Vector_12" d="M126.868 32.9987C124.587 32.9987 123.697 31.8246 124.197 29.4726L127.175 15.2648C127.207 15.111 127.342 15 127.497 15H130.324C130.533 15 130.688 15.1947 130.646 15.403L127.75 29.1824C127.664 29.6206 127.677 29.9242 127.788 30.0898C127.9 30.2572 128.147 30.339 128.527 30.339C128.791 30.339 129.044 30.3176 129.286 30.2747C129.528 30.2319 129.714 30.4344 129.668 30.6661L129.317 32.4107C129.294 32.5294 129.209 32.6268 129.096 32.6638C128.419 32.8858 127.675 32.9968 126.868 32.9968V32.9987Z" fill="black"></path><path id="Vector_13" d="M136.329 32.9976C135.274 32.9976 134.363 32.8049 133.593 32.4194C132.824 32.0338 132.28 31.4069 131.961 30.5385C131.641 29.6701 131.628 28.5252 131.923 27.1038C132.234 25.6124 132.752 24.341 133.478 23.2896C134.205 22.2382 135.076 21.4262 136.096 20.8558C137.115 20.2852 138.205 20.001 139.363 20.001C140.054 20.001 140.65 20.0808 141.15 20.2385C141.494 20.3476 141.822 20.5131 142.135 20.737C142.332 20.8791 142.608 20.7759 142.655 20.5345C142.685 20.3767 142.819 20.2639 142.977 20.2639H145.8C146.009 20.2639 146.164 20.4586 146.122 20.6669L143.669 32.472C143.636 32.6258 143.502 32.7367 143.347 32.7367H140.943C140.759 32.7367 140.609 32.5829 140.615 32.396L140.619 32.2227C140.625 31.9579 140.339 31.7943 140.117 31.9345C139.639 32.2344 139.152 32.472 138.652 32.6452C137.969 32.8827 137.195 32.9996 136.333 32.9996L136.329 32.9976ZM137.832 30.3924C138.883 30.3924 139.852 30.042 140.742 29.3391C140.805 29.2904 140.848 29.2164 140.864 29.1385L141.948 23.8639C141.968 23.7666 141.947 23.6614 141.884 23.5836C141.356 22.9313 140.634 22.6042 139.726 22.6042C137.532 22.6042 136.114 24.1035 135.475 27.1038C135.199 28.3851 135.245 29.2534 135.617 29.709C135.989 30.1647 136.727 30.3924 137.832 30.3924Z" fill="black"></path><path id="Vector_14" d="M153.72 32.9987C152.854 32.9987 152.122 32.8721 151.516 32.617C151.077 32.4321 150.693 32.2004 150.363 31.918C150.186 31.7681 149.92 31.8363 149.841 32.0544L149.676 32.5158C149.628 32.6482 149.505 32.7358 149.368 32.7358H146.972C146.763 32.7358 146.607 32.5411 146.649 32.3328L150.217 15.2648C150.25 15.111 150.384 15 150.54 15H153.366C153.575 15 153.731 15.1947 153.689 15.403L152.668 20.2804C152.613 20.5472 152.876 20.7613 153.121 20.6524C154.105 20.2162 155.178 20.0001 156.34 20.0001C157.41 20.0001 158.327 20.2279 159.086 20.6835C159.846 21.1391 160.386 21.8362 160.707 22.7746C161.027 23.7131 161.039 24.9184 160.745 26.3923C160.295 28.6372 159.483 30.3001 158.31 31.3787C157.133 32.4574 155.605 32.9968 153.721 32.9968L153.72 32.9987ZM153.281 30.3935C154.402 30.3935 155.267 30.0606 155.872 29.3947C156.476 28.7288 156.917 27.728 157.193 26.3942C157.487 25.0079 157.47 24.0305 157.142 23.46C156.814 22.8895 156.061 22.6052 154.886 22.6052C153.794 22.6052 152.862 22.8856 152.087 23.4483C152.02 23.497 151.974 23.5729 151.957 23.6547L150.823 29.1104C150.804 29.2078 150.823 29.311 150.885 29.3869C151.132 29.6945 151.447 29.934 151.828 30.1054C152.26 30.2981 152.744 30.3955 153.281 30.3955V30.3935Z" fill="black"></path><path id="Vector_15" d="M166.007 32.9977C165.09 32.9977 164.235 32.9314 163.441 32.801C162.794 32.6939 162.257 32.5674 161.827 32.4194C161.666 32.3649 161.572 32.1994 161.607 32.0319L162.087 29.7558C162.129 29.5611 162.33 29.4403 162.514 29.5105C162.984 29.6876 163.514 29.8298 164.099 29.9349C164.833 30.0654 165.52 30.1316 166.158 30.1316C167.022 30.1316 167.645 30.079 168.024 29.9739C168.404 29.8687 168.629 29.6312 168.698 29.2632C168.784 28.8426 168.573 28.535 168.063 28.3422C167.553 28.1494 166.807 27.8769 165.821 27.5264C164.766 27.1409 163.993 26.6619 163.502 26.0914C163.009 25.5209 162.875 24.7285 163.101 23.7101C163.36 22.5185 163.957 21.6015 164.891 20.9609C165.823 20.3203 167.292 20.001 169.296 20.001C170.056 20.001 170.764 20.0575 171.422 20.1723C171.937 20.2619 172.385 20.3651 172.762 20.4819C172.927 20.5325 173.029 20.7019 172.992 20.8732L172.521 23.091C172.476 23.2935 172.266 23.4083 172.076 23.3266C171.742 23.1825 171.364 23.0695 170.942 22.9858C170.363 22.8729 169.814 22.8145 169.296 22.8145C168.552 22.8145 167.952 22.867 167.496 22.9722C167.037 23.0773 166.764 23.3052 166.678 23.6556C166.609 24.0412 166.789 24.3137 167.223 24.4714C167.654 24.6292 168.347 24.8667 169.296 25.1821C170.662 25.6378 171.546 26.1732 171.953 26.7865C172.359 27.4018 172.459 28.2079 172.252 29.2067C171.993 30.4528 171.375 31.3952 170.399 32.0358C169.423 32.6764 167.957 32.9957 166.005 32.9957L166.007 32.9977Z" fill="black"></path></g></g><defs><clipPath id="clip0_417_2286"><rect width="173" height="48" fill="white"></rect></clipPath></defs></svg> 